<?xml version="1.0" encoding="utf-8"?>
<!-- Generator: Adobe Illustrator 23.0.1, SVG Export Plug-In . SVG Version: 6.00 Build 0)  -->
<svg version="1.1" id="Layer_1" xmlns="http://www.w3.org/2000/svg" xmlns:xlink="http://www.w3.org/1999/xlink" x="0px" y="0px"
	 viewBox="0 0 384.6 384.6" style="enable-background:new 0 0 384.6 384.6;" xml:space="preserve">
<style type="text/css">
	.st0{fill:#72B6AE;}
	.st1{fill:#63466A;stroke:#63466A;stroke-width:2.856;stroke-miterlimit:10;}
</style>
<g>
	<path class="st0" d="M316.2,240.9c-5.5-3.2-12.3-3.2-17.8,0l-70.6,40.8c-2.9,1.6-6.4,1.6-9.3,0l-70.6-40.8c-2.9-1.6-4.6-4.7-4.6-8
		v-81.5c0-3.3,1.8-6.4,4.6-8l70.6-40.8c2.9-1.6,6.4-1.6,9.3,0l70.6,40.8c5.5,3.2,12.3,3.2,17.8,0c5.6-3.2,8.9-9,8.9-15.4
		c0-6.4-3.3-12.2-8.9-15.4L240.8,69V22.7c0-9.8-8-17.8-17.8-17.8c-9.8,0-17.8,8-17.8,17.8v46.4l-88.6,51.2
		c-5.5,3.2-8.9,9.1-8.9,15.4V239l-39.7,23.9c-8.4,5.1-11.1,16-6.1,24.5c2.5,4.1,6.4,7,11,8.1c4.6,1.1,9.4,0.4,13.5-2l39.8-24
		l79.1,45.7v46.4c0,9.8,8,17.8,17.8,17.8c9.8,0,17.8-8,17.8-17.8v-46.2l75.4-43.5c5.6-3.2,8.9-9,8.9-15.4
		C325.1,249.9,321.8,244.2,316.2,240.9z"/>
	<g>
		<path class="st1" d="M164.5,168.4L164.5,168.4c-3.3-5.8-1.3-13.2,4.4-16.5l46.8-26.9c5.8-3.3,13.2-1.3,16.5,4.4v0
			c3.3,5.8,1.3,13.2-4.4,16.5L181,172.8C175.2,176.1,167.9,174.1,164.5,168.4z"/>
	</g>
	<g>
		<path class="st1" d="M164.6,214.9L164.6,214.9c3.3-5.8,10.7-7.7,16.5-4.4l46.7,27.1c5.8,3.3,7.7,10.7,4.4,16.5l0,0
			c-3.3,5.8-10.7,7.7-16.5,4.4L169,231.4C163.2,228,161.3,220.7,164.6,214.9z"/>
	</g>
</g>
</svg>
